<mxfile host="app.diagrams.net" modified="2023-04-03T02:03:46.988Z" agent="5.0 (Macintosh; Intel Mac OS X 10_15_7) AppleWebKit/537.36 (KHTML, like Gecko) Chrome/107.0.0.0 Safari/537.36" etag="fa_D-mX973qtimm_hBi-" version="21.0.6" type="github">
  <diagram name="Page-1" id="Q1nV9nEQXg-T6GQoXSyR">
    <mxGraphModel dx="2585" dy="1178" grid="1" gridSize="10" guides="1" tooltips="1" connect="1" arrows="1" fold="1" page="1" pageScale="1" pageWidth="850" pageHeight="1100" math="0" shadow="0">
      <root>
        <mxCell id="0" />
        <mxCell id="1" parent="0" />
        <mxCell id="NS1JnrIsEWFkyKMToehy-13" style="edgeStyle=orthogonalEdgeStyle;rounded=0;orthogonalLoop=1;jettySize=auto;html=1;" edge="1" parent="1" source="iKLlrhpzvYxm8w4dEzUs-7" target="iKLlrhpzvYxm8w4dEzUs-12">
          <mxGeometry relative="1" as="geometry" />
        </mxCell>
        <mxCell id="NS1JnrIsEWFkyKMToehy-15" value="Query : I want to do something&lt;br&gt;In a specific topic&lt;br&gt;&lt;br&gt;I want to buy Apple Inc every time &lt;br&gt;they have a good quarter" style="edgeLabel;html=1;align=center;verticalAlign=middle;resizable=0;points=[];" vertex="1" connectable="0" parent="NS1JnrIsEWFkyKMToehy-13">
          <mxGeometry x="-0.0838" relative="1" as="geometry">
            <mxPoint x="-17" y="-3" as="offset" />
          </mxGeometry>
        </mxCell>
        <mxCell id="iKLlrhpzvYxm8w4dEzUs-7" value="User" style="shape=umlActor;verticalLabelPosition=bottom;verticalAlign=top;html=1;outlineConnect=0;" parent="1" vertex="1">
          <mxGeometry x="-240" y="140" width="90" height="180" as="geometry" />
        </mxCell>
        <mxCell id="iKLlrhpzvYxm8w4dEzUs-8" value="Front-end" style="swimlane;whiteSpace=wrap;html=1;" parent="1" vertex="1">
          <mxGeometry x="120" y="136" width="200" height="200" as="geometry" />
        </mxCell>
        <mxCell id="iKLlrhpzvYxm8w4dEzUs-16" value="Back-end" style="swimlane;whiteSpace=wrap;html=1;" parent="1" vertex="1">
          <mxGeometry x="370" y="133" width="1230" height="527" as="geometry" />
        </mxCell>
        <mxCell id="iKLlrhpzvYxm8w4dEzUs-38" value="Cloud server" style="swimlane;whiteSpace=wrap;html=1;startSize=10;fillColor=#ffe6cc;strokeColor=#d79b00;" parent="1" vertex="1">
          <mxGeometry x="100" y="80" width="1550" height="600" as="geometry" />
        </mxCell>
        <mxCell id="NS1JnrIsEWFkyKMToehy-2" value="Prompt Engineer: Combines preamble with user query&lt;br&gt;Output: Some code" style="rounded=0;whiteSpace=wrap;html=1;fillColor=#e1d5e7;strokeColor=#9673a6;" vertex="1" parent="iKLlrhpzvYxm8w4dEzUs-38">
          <mxGeometry x="510" y="128" width="130" height="70" as="geometry" />
        </mxCell>
        <mxCell id="NS1JnrIsEWFkyKMToehy-27" style="edgeStyle=orthogonalEdgeStyle;rounded=0;orthogonalLoop=1;jettySize=auto;html=1;exitX=1;exitY=0.5;exitDx=0;exitDy=0;entryX=0;entryY=0.5;entryDx=0;entryDy=0;" edge="1" parent="iKLlrhpzvYxm8w4dEzUs-38" source="iKLlrhpzvYxm8w4dEzUs-12" target="NS1JnrIsEWFkyKMToehy-2">
          <mxGeometry relative="1" as="geometry">
            <mxPoint x="320" y="200" as="targetPoint" />
          </mxGeometry>
        </mxCell>
        <mxCell id="iKLlrhpzvYxm8w4dEzUs-12" value="DJ Chatbot&lt;br&gt;v1 - CLI&lt;br&gt;v2 - Telegram etc" style="whiteSpace=wrap;html=1;aspect=fixed;" parent="iKLlrhpzvYxm8w4dEzUs-38" vertex="1">
          <mxGeometry x="65" y="108" width="110" height="110" as="geometry" />
        </mxCell>
        <mxCell id="NS1JnrIsEWFkyKMToehy-42" value="" style="edgeStyle=orthogonalEdgeStyle;rounded=0;orthogonalLoop=1;jettySize=auto;html=1;" edge="1" parent="iKLlrhpzvYxm8w4dEzUs-38" source="NS1JnrIsEWFkyKMToehy-28" target="NS1JnrIsEWFkyKMToehy-2">
          <mxGeometry relative="1" as="geometry" />
        </mxCell>
        <mxCell id="NS1JnrIsEWFkyKMToehy-28" value="Topic Selector&lt;br&gt;eg: N categories&amp;nbsp;&lt;br&gt;selection by ChatGPT&lt;br&gt;Output: Preamble" style="rounded=0;whiteSpace=wrap;html=1;fillColor=#e1d5e7;strokeColor=#9673a6;" vertex="1" parent="iKLlrhpzvYxm8w4dEzUs-38">
          <mxGeometry x="305" y="220" width="140" height="70" as="geometry" />
        </mxCell>
        <mxCell id="NS1JnrIsEWFkyKMToehy-35" value="Folder: API documentation in categorized docs&lt;br&gt;+&lt;br&gt;Minimal intro to API" style="rounded=0;whiteSpace=wrap;html=1;fillColor=#fff2cc;strokeColor=#d6b656;" vertex="1" parent="iKLlrhpzvYxm8w4dEzUs-38">
          <mxGeometry x="310" y="410" width="130" height="70" as="geometry" />
        </mxCell>
        <mxCell id="NS1JnrIsEWFkyKMToehy-36" value="" style="endArrow=classic;html=1;rounded=0;exitX=0.5;exitY=1;exitDx=0;exitDy=0;entryX=0.5;entryY=0;entryDx=0;entryDy=0;" edge="1" parent="iKLlrhpzvYxm8w4dEzUs-38" source="NS1JnrIsEWFkyKMToehy-28" target="NS1JnrIsEWFkyKMToehy-35">
          <mxGeometry relative="1" as="geometry">
            <mxPoint x="320" y="340" as="sourcePoint" />
            <mxPoint x="420" y="340" as="targetPoint" />
          </mxGeometry>
        </mxCell>
        <mxCell id="NS1JnrIsEWFkyKMToehy-37" value="Selector picks doc it needs&lt;br&gt;FF: (1) Load all APIs&lt;br&gt;(2) GPT decide to use whichever" style="edgeLabel;resizable=0;html=1;align=center;verticalAlign=middle;" connectable="0" vertex="1" parent="NS1JnrIsEWFkyKMToehy-36">
          <mxGeometry relative="1" as="geometry" />
        </mxCell>
        <mxCell id="NS1JnrIsEWFkyKMToehy-43" style="edgeStyle=orthogonalEdgeStyle;rounded=0;orthogonalLoop=1;jettySize=auto;html=1;entryX=0;entryY=0.5;entryDx=0;entryDy=0;" edge="1" parent="iKLlrhpzvYxm8w4dEzUs-38" target="NS1JnrIsEWFkyKMToehy-28">
          <mxGeometry relative="1" as="geometry">
            <mxPoint x="180" y="163" as="sourcePoint" />
            <mxPoint x="330" y="210" as="targetPoint" />
          </mxGeometry>
        </mxCell>
        <mxCell id="NS1JnrIsEWFkyKMToehy-47" value="" style="edgeStyle=orthogonalEdgeStyle;rounded=0;orthogonalLoop=1;jettySize=auto;html=1;" edge="1" parent="iKLlrhpzvYxm8w4dEzUs-38" source="NS1JnrIsEWFkyKMToehy-44" target="NS1JnrIsEWFkyKMToehy-46">
          <mxGeometry relative="1" as="geometry" />
        </mxCell>
        <mxCell id="NS1JnrIsEWFkyKMToehy-44" value="Parser: Parse GPT output&lt;br&gt;Output: Code file" style="rounded=0;whiteSpace=wrap;html=1;fillColor=#dae8fc;strokeColor=#6c8ebf;" vertex="1" parent="iKLlrhpzvYxm8w4dEzUs-38">
          <mxGeometry x="750" y="133" width="120" height="60" as="geometry" />
        </mxCell>
        <mxCell id="NS1JnrIsEWFkyKMToehy-4" value="" style="edgeStyle=orthogonalEdgeStyle;rounded=0;orthogonalLoop=1;jettySize=auto;html=1;entryX=0;entryY=0.5;entryDx=0;entryDy=0;" edge="1" parent="iKLlrhpzvYxm8w4dEzUs-38" source="NS1JnrIsEWFkyKMToehy-2" target="NS1JnrIsEWFkyKMToehy-44">
          <mxGeometry relative="1" as="geometry">
            <mxPoint x="898.6799999999998" y="122.76000000000022" as="targetPoint" />
          </mxGeometry>
        </mxCell>
        <mxCell id="NS1JnrIsEWFkyKMToehy-70" value="" style="edgeStyle=orthogonalEdgeStyle;rounded=0;orthogonalLoop=1;jettySize=auto;html=1;" edge="1" parent="iKLlrhpzvYxm8w4dEzUs-38" source="NS1JnrIsEWFkyKMToehy-46" target="NS1JnrIsEWFkyKMToehy-69">
          <mxGeometry relative="1" as="geometry" />
        </mxCell>
        <mxCell id="NS1JnrIsEWFkyKMToehy-46" value="Agent: Runs output code&lt;br&gt;Output: Results of code exec" style="rounded=0;whiteSpace=wrap;html=1;fillColor=#dae8fc;strokeColor=#6c8ebf;" vertex="1" parent="iKLlrhpzvYxm8w4dEzUs-38">
          <mxGeometry x="950" y="130.25" width="180" height="65.5" as="geometry" />
        </mxCell>
        <mxCell id="NS1JnrIsEWFkyKMToehy-48" value="Action Spec: GPT puts markers in the code for post actions - to be interpreted/summarized later" style="rounded=0;whiteSpace=wrap;html=1;fillColor=#ffe6cc;strokeColor=#d79b00;" vertex="1" parent="iKLlrhpzvYxm8w4dEzUs-38">
          <mxGeometry x="510" y="270" width="130" height="90" as="geometry" />
        </mxCell>
        <mxCell id="NS1JnrIsEWFkyKMToehy-49" value="Include GET/POST in all API docs" style="rounded=0;whiteSpace=wrap;html=1;fillColor=#ffe6cc;strokeColor=#d79b00;" vertex="1" parent="iKLlrhpzvYxm8w4dEzUs-38">
          <mxGeometry x="315" y="500" width="120" height="50" as="geometry" />
        </mxCell>
        <mxCell id="NS1JnrIsEWFkyKMToehy-68" value="FF: Sanity checks&amp;nbsp;&lt;br&gt;(1) citations in output&lt;br&gt;(2) check the citations&lt;br&gt;(3) provide code+data to user" style="rounded=0;whiteSpace=wrap;html=1;fillColor=#ffe6cc;strokeColor=#d79b00;" vertex="1" parent="iKLlrhpzvYxm8w4dEzUs-38">
          <mxGeometry x="1330" y="260" width="130" height="90" as="geometry" />
        </mxCell>
        <mxCell id="NS1JnrIsEWFkyKMToehy-69" value="Summarizer:&amp;nbsp;&lt;br&gt;Take execution result - (includes get info, and post action stats)&lt;br&gt;Add prompt for summary spec&lt;br&gt;Output summary for user" style="rounded=0;whiteSpace=wrap;html=1;fillColor=#e1d5e7;strokeColor=#9673a6;" vertex="1" parent="iKLlrhpzvYxm8w4dEzUs-38">
          <mxGeometry x="1230" y="125.13" width="200" height="75.75" as="geometry" />
        </mxCell>
        <mxCell id="iKLlrhpzvYxm8w4dEzUs-42" value="FF: Offline RL training application" style="rounded=0;whiteSpace=wrap;html=1;fillColor=#ffe6cc;strokeColor=#d79b00;" parent="iKLlrhpzvYxm8w4dEzUs-38" vertex="1">
          <mxGeometry x="810" y="440" width="170" height="70" as="geometry" />
        </mxCell>
        <mxCell id="NS1JnrIsEWFkyKMToehy-84" value="Database of interactions&lt;br&gt;List of tuples (User query, Prompt engg query, output to user)&lt;br&gt;List ends when user interaction is done" style="rounded=0;whiteSpace=wrap;html=1;fillColor=#fff2cc;strokeColor=#d6b656;" vertex="1" parent="iKLlrhpzvYxm8w4dEzUs-38">
          <mxGeometry x="800" y="320" width="190" height="100" as="geometry" />
        </mxCell>
        <mxCell id="NS1JnrIsEWFkyKMToehy-85" style="edgeStyle=orthogonalEdgeStyle;rounded=0;orthogonalLoop=1;jettySize=auto;html=1;entryX=0.5;entryY=0;entryDx=0;entryDy=0;exitX=1;exitY=0.5;exitDx=0;exitDy=0;" edge="1" parent="iKLlrhpzvYxm8w4dEzUs-38" source="iKLlrhpzvYxm8w4dEzUs-12" target="NS1JnrIsEWFkyKMToehy-84">
          <mxGeometry relative="1" as="geometry">
            <mxPoint x="180" y="160" as="sourcePoint" />
            <mxPoint x="520" y="173" as="targetPoint" />
            <Array as="points">
              <mxPoint x="240" y="163" />
              <mxPoint x="240" y="100" />
              <mxPoint x="895" y="100" />
            </Array>
          </mxGeometry>
        </mxCell>
        <mxCell id="NS1JnrIsEWFkyKMToehy-86" value="" style="edgeStyle=orthogonalEdgeStyle;rounded=0;orthogonalLoop=1;jettySize=auto;html=1;entryX=-0.014;entryY=0.415;entryDx=0;entryDy=0;entryPerimeter=0;" edge="1" parent="iKLlrhpzvYxm8w4dEzUs-38" target="NS1JnrIsEWFkyKMToehy-84">
          <mxGeometry relative="1" as="geometry">
            <mxPoint x="640" y="160" as="sourcePoint" />
            <mxPoint x="760" y="173" as="targetPoint" />
            <Array as="points">
              <mxPoint x="720" y="173" />
              <mxPoint x="720" y="362" />
            </Array>
          </mxGeometry>
        </mxCell>
        <mxCell id="NS1JnrIsEWFkyKMToehy-91" value="" style="edgeStyle=orthogonalEdgeStyle;rounded=0;orthogonalLoop=1;jettySize=auto;html=1;entryX=1;entryY=0.5;entryDx=0;entryDy=0;exitX=0.437;exitY=1.009;exitDx=0;exitDy=0;exitPerimeter=0;" edge="1" parent="iKLlrhpzvYxm8w4dEzUs-38" source="NS1JnrIsEWFkyKMToehy-69" target="NS1JnrIsEWFkyKMToehy-84">
          <mxGeometry relative="1" as="geometry">
            <mxPoint x="1140" y="173" as="sourcePoint" />
            <mxPoint x="1240" y="173" as="targetPoint" />
          </mxGeometry>
        </mxCell>
        <mxCell id="NS1JnrIsEWFkyKMToehy-39" value="Talk to ChatGPT" style="rounded=0;whiteSpace=wrap;html=1;fillColor=#e1d5e7;strokeColor=#9673a6;" vertex="1" parent="1">
          <mxGeometry x="440" y="800" width="140" height="30" as="geometry" />
        </mxCell>
        <mxCell id="NS1JnrIsEWFkyKMToehy-40" value="Data to read" style="rounded=0;whiteSpace=wrap;html=1;fillColor=#fff2cc;strokeColor=#d6b656;" vertex="1" parent="1">
          <mxGeometry x="440" y="840" width="140" height="30" as="geometry" />
        </mxCell>
        <mxCell id="NS1JnrIsEWFkyKMToehy-45" value="DJ Software Agents&lt;br&gt;Does interstitial work" style="rounded=0;whiteSpace=wrap;html=1;fillColor=#dae8fc;strokeColor=#6c8ebf;" vertex="1" parent="1">
          <mxGeometry x="440" y="720" width="140" height="60" as="geometry" />
        </mxCell>
        <mxCell id="NS1JnrIsEWFkyKMToehy-66" value="Things to do" style="rounded=0;whiteSpace=wrap;html=1;fillColor=#ffe6cc;strokeColor=#d79b00;" vertex="1" parent="1">
          <mxGeometry x="440" y="880" width="140" height="30" as="geometry" />
        </mxCell>
        <mxCell id="NS1JnrIsEWFkyKMToehy-80" value="" style="edgeStyle=orthogonalEdgeStyle;rounded=0;orthogonalLoop=1;jettySize=auto;html=1;exitX=0.5;exitY=1;exitDx=0;exitDy=0;" edge="1" parent="1" source="NS1JnrIsEWFkyKMToehy-69">
          <mxGeometry relative="1" as="geometry">
            <mxPoint x="1240" y="253" as="sourcePoint" />
            <mxPoint x="220" y="298" as="targetPoint" />
            <Array as="points">
              <mxPoint x="1420" y="640" />
              <mxPoint x="220" y="640" />
            </Array>
          </mxGeometry>
        </mxCell>
        <mxCell id="NS1JnrIsEWFkyKMToehy-81" style="edgeStyle=orthogonalEdgeStyle;rounded=0;orthogonalLoop=1;jettySize=auto;html=1;exitX=0;exitY=0.75;exitDx=0;exitDy=0;entryX=1;entryY=1;entryDx=0;entryDy=0;entryPerimeter=0;" edge="1" parent="1" source="iKLlrhpzvYxm8w4dEzUs-12" target="iKLlrhpzvYxm8w4dEzUs-7">
          <mxGeometry relative="1" as="geometry">
            <mxPoint x="-140" y="347" as="sourcePoint" />
            <mxPoint x="-100" y="480" as="targetPoint" />
          </mxGeometry>
        </mxCell>
        <mxCell id="NS1JnrIsEWFkyKMToehy-83" value="User receives info and/or action summary&lt;br&gt;&amp;nbsp;+ Can query again" style="edgeLabel;html=1;align=center;verticalAlign=middle;resizable=0;points=[];" vertex="1" connectable="0" parent="NS1JnrIsEWFkyKMToehy-81">
          <mxGeometry x="0.0235" y="-2" relative="1" as="geometry">
            <mxPoint y="-1" as="offset" />
          </mxGeometry>
        </mxCell>
      </root>
    </mxGraphModel>
  </diagram>
</mxfile>
